<?xml version="1.0" encoding="UTF-8" standalone="no"?>
<!-- Created with Inkscape (http://www.inkscape.org/) -->

<svg
   width="36.995464mm"
   height="7.5014238mm"
   viewBox="0 0 36.995464 7.5014239"
   version="1.1"
   id="svg1"
   xml:space="preserve"
   xmlns="http://www.w3.org/2000/svg"
   xmlns:svg="http://www.w3.org/2000/svg"><defs
     id="defs1" /><g
     id="layer1"
     transform="matrix(0.08478526,0,0,0.08478526,-6.3243906,-8.3823744)"><path
       style="fill:#000000;stroke-width:0.552795"
       d="m 77.994188,115.70639 c -0.70331,-1.63202 -1.27793,-3.01827 -1.27687,-3.08058 9.9e-4,-0.0622 1.31326,-0.81883 2.91616,-1.68122 1.60287,-0.86236 2.91428,-1.62121 2.91428,-1.68632 0,-0.0651 -1.34065,-1.2161 -2.97917,-2.55777 -1.63854,-1.34174 -2.98121,-2.4762 -2.98364,-2.52113 -0.0137,-0.20186 3.4935,-5.313473 3.64341,-5.313473 0.16359,0 1.28957,0.90212 7.66227,6.138553 2.78762,2.29061 3.08622,2.58085 3.4347,3.33811 0.68662,1.49222 0.38709,3.19604 -0.73413,4.17527 -0.41889,0.36551 -10.97602,6.1559 -11.22421,6.1559 -0.0517,0 -0.66957,-1.33536 -1.3728,-2.96734 z"
       id="path23" /><path
       style="fill:#004aad;fill-opacity:1;stroke-width:3.18884"
       d="m 130.03074,102.02843 h 14.37277 l -0.0128,13.78067 h -14.13115 z"
       id="path24" /><path
       style="opacity:1;fill:#00000d;fill-opacity:1;stroke-width:0.264583"
       d="m 130.18348,121.46513 14.94619,-0.007 0.41305,28.13589 c 0,0 -0.11844,7.16158 -2.64047,13.52612 -2.52202,6.36453 -5.37585,10.8402 -11.99201,15.38195 -6.61617,4.54175 -21.72081,11.61961 -38.803936,1.73376 C 75.02318,170.35022 74.593045,149.99552 74.593045,149.99552 l 14.703857,-0.11578 c 0,0 0.713537,20.51177 20.770738,20.05971 20.0572,-0.45207 19.91469,-20.20247 19.91469,-20.20247 z"
       id="path25" /></g><path
     d="m 7.3325125,5.21542 q 0,-0.4826 0.1778,-0.8974667 Q 7.6965792,3.89462 8.0098458,3.58982 8.3315792,3.2765534 8.7633792,3.0987534 q 0.4318,-0.1778 0.9228666,-0.1778 0.4910662,0 0.9228662,0.1778 0.4318,0.1778 0.745067,0.4910666 0.321733,0.3048 0.499533,0.7281333 0.186267,0.4148667 0.186267,0.8974667 0,0.4826 -0.186267,0.9059333 -0.1778,0.4148667 -0.499533,0.7196667 -0.313267,0.3048 -0.745067,0.4826 -0.4318,0.1778 -0.9228662,0.1778 -0.4910666,0 -0.9228666,-0.1778 -0.4318,-0.1778 -0.7535334,-0.4826 Q 7.6965792,6.53622 7.5103125,6.1213533 7.3325125,5.69802 7.3325125,5.21542 Z m 2.3537333,1.2784666 q 0.5080002,0 0.8636002,-0.3725333 0.3556,-0.3725333 0.3556,-0.9059333 0,-0.5418667 -0.3556,-0.9144 -0.3556,-0.3725333 -0.8636002,-0.3725333 -0.508,0 -0.8636,0.3725333 -0.3556,0.3725333 -0.3556,0.9144 0,0.5334 0.3556,0.9059333 0.3556,0.3725333 0.8636,0.3725333 z M 17.920072,5.21542 q 0,0.4741333 -0.1778,0.889 -0.1778,0.4148666 -0.4826,0.7196666 -0.3048,0.3048 -0.728133,0.4826 -0.414867,0.1693334 -0.889,0.1693334 -0.3302,0 -0.643467,-0.093133 -0.313266,-0.093133 -0.575733,-0.2624666 v 0.2963333 h -1.143 v -5.926667 l 1.159933,-0.254 V 3.3527534 Q 14.702739,3.15802 15.016006,3.05642 q 0.321733,-0.1100666 0.6604,-0.1100666 0.465666,0 0.872066,0.1778 0.414867,0.1778 0.719667,0.4826 0.3048,0.3047999 0.474133,0.7196666 0.1778,0.4148667 0.1778,0.889 z M 15.490139,3.9369533 q -0.313267,0 -0.5842,0.1100667 -0.270933,0.1016 -0.465667,0.3048 v 1.7356667 q 0.186267,0.1862666 0.4572,0.2963333 0.2794,0.1100666 0.592667,0.1100666 0.541867,0 0.9144,-0.3640666 0.372533,-0.3725333 0.372533,-0.9144 0,-0.5418667 -0.381,-0.9059333 Q 16.023539,3.9369533 15.490139,3.9369533 Z M 23.148235,6.86642 q -0.4064,0.3302 -0.838199,0.4826 -0.423333,0.1524 -0.948266,0.1524 -0.499534,0 -0.9398,-0.1778 -0.4318,-0.1778 -0.753534,-0.4826 -0.313266,-0.3048 -0.499533,-0.7196667 -0.1778,-0.4233333 -0.1778,-0.9059333 0,-0.4741333 0.169333,-0.889 0.1778,-0.4233333 0.4826,-0.7281333 0.3048,-0.3132667 0.719667,-0.4910667 0.423333,-0.1778 0.897467,-0.1778 0.465666,0 0.8636,0.1862667 0.406398,0.1778 0.694265,0.4910667 0.296333,0.3132666 0.4572,0.7535333 0.169333,0.4318 0.169333,0.9398 v 0.3048 h -3.285065 q 0.118533,0.4148666 0.4572,0.6688666 0.338667,0.254 0.795867,0.254 0.287866,0 0.541866,-0.093133 0.254,-0.093133 0.431799,-0.2624667 z M 21.23477,3.8861533 q -0.397934,0 -0.6858,0.2455334 -0.287867,0.2370666 -0.397934,0.6434666 h 2.159 q -0.110066,-0.3894666 -0.4064,-0.635 -0.287866,-0.254 -0.668866,-0.254 z m 4.830229,3.6068 q -0.7112,0 -1.159933,-0.3725333 -0.448734,-0.381 -0.448734,-0.9821333 0,-0.6265334 0.4826,-0.9821334 0.4826,-0.3556 1.329267,-0.3556 0.270933,0 0.541867,0.042333 0.270933,0.042333 0.5334,0.127 V 4.65662 q 0,-0.381 -0.237067,-0.5757333 -0.237067,-0.1947334 -0.694267,-0.1947334 -0.2794,0 -0.6096,0.093133 -0.321733,0.084667 -0.7366,0.2709333 L 24.642599,3.3950867 q 0.516467,-0.2370667 0.999067,-0.3556 0.491066,-0.1185333 0.9652,-0.1185333 0.889,0 1.380066,0.4318 0.499534,0.4233333 0.499534,1.2022666 v 2.8617333 h -1.143 v -0.3048 q -0.2794,0.1947333 -0.592667,0.2878667 -0.3048,0.093133 -0.6858,0.093133 z M 25.565466,6.1128867 q 0,0.254 0.220133,0.4063999 0.220133,0.1439334 0.5842,0.1439334 0.287867,0 0.524933,-0.067733 0.245534,-0.0762 0.448734,-0.2116666 v -0.6604 q -0.211667,-0.084667 -0.448734,-0.1185337 -0.2286,-0.042333 -0.4826,-0.042333 -0.397933,0 -0.626533,0.1524 -0.220133,0.1439334 -0.220133,0.397933 z m 5.490636,-4.8768 V 7.4167533 H 29.896168 V 1.4900867 Z M 32.287999,5.21542 q 0,-0.4826 0.1778,-0.8974667 0.186267,-0.4233333 0.499533,-0.7281333 0.321734,-0.3132666 0.753534,-0.4910666 0.4318,-0.1778 0.922866,-0.1778 0.491067,0 0.922867,0.1778 0.4318,0.1778 0.745067,0.4910666 0.321733,0.3048 0.499533,0.7281333 0.186267,0.4148667 0.186267,0.8974667 0,0.4826 -0.186267,0.9059333 -0.1778,0.4148667 -0.499533,0.7196667 -0.313267,0.3048 -0.745067,0.4826 -0.4318,0.1778 -0.922867,0.1778 -0.491066,0 -0.922866,-0.1778 -0.4318,-0.1778 -0.753534,-0.4826 Q 32.652066,6.53622 32.465799,6.1213533 32.287999,5.69802 32.287999,5.21542 Z m 2.353733,1.2784666 q 0.508,0 0.8636,-0.3725333 0.3556,-0.3725333 0.3556,-0.9059333 0,-0.5418667 -0.3556,-0.9144 -0.3556,-0.3725333 -0.8636,-0.3725333 -0.508,0 -0.8636,0.3725333 -0.3556,0.3725333 -0.3556,0.9144 0,0.5334 0.3556,0.9059333 0.3556,0.3725333 0.8636,0.3725333 z"
     id="text1"
     style="font-size:32px;line-height:0;font-family:'Red Hat Display';-inkscape-font-specification:'Red Hat Display';letter-spacing:2px;word-spacing:1.73px;white-space:pre;fill:#00000d;stroke-width:0.264583"
     aria-label="obealo" /></svg>
