<?xml version="1.0" encoding="UTF-8" standalone="no"?>
<!-- Created with Inkscape (http://www.inkscape.org/) -->

<svg
   width="36.995464mm"
   height="7.5014238mm"
   viewBox="0 0 36.995464 7.5014239"
   version="1.1"
   id="svg1"
   xml:space="preserve"
   xmlns="http://www.w3.org/2000/svg"
   xmlns:svg="http://www.w3.org/2000/svg"><defs
     id="defs1"><rect
       x="42.313011"
       y="189.08627"
       width="220.82104"
       height="79.336899"
       id="rect2" /></defs><g
     id="layer1"
     transform="matrix(0.08478526,0,0,0.08478526,-6.3243906,-8.3823744)"><path
       style="fill:#000000;stroke-width:0.552795"
       d="m 77.994188,115.70639 c -0.70331,-1.63202 -1.27793,-3.01827 -1.27687,-3.08058 9.9e-4,-0.0622 1.31326,-0.81883 2.91616,-1.68122 1.60287,-0.86236 2.91428,-1.62121 2.91428,-1.68632 0,-0.0651 -1.34065,-1.2161 -2.97917,-2.55777 -1.63854,-1.34174 -2.98121,-2.4762 -2.98364,-2.52113 -0.0137,-0.20186 3.4935,-5.313473 3.64341,-5.313473 0.16359,0 1.28957,0.90212 7.66227,6.138553 2.78762,2.29061 3.08622,2.58085 3.4347,3.33811 0.68662,1.49222 0.38709,3.19604 -0.73413,4.17527 -0.41889,0.36551 -10.97602,6.1559 -11.22421,6.1559 -0.0517,0 -0.66957,-1.33536 -1.3728,-2.96734 z"
       id="path23" /><path
       style="fill:#004aad;fill-opacity:1;stroke-width:3.18884"
       d="m 130.03074,102.02843 h 14.37277 l -0.0128,13.78067 h -14.13115 z"
       id="path24" /><path
       style="opacity:1;fill:#00000d;fill-opacity:1;stroke-width:0.264583"
       d="m 130.18348,121.46513 14.94619,-0.007 0.41305,28.13589 c 0,0 -0.11844,7.16158 -2.64047,13.52612 -2.52202,6.36453 -5.37585,10.8402 -11.99201,15.38195 -6.61617,4.54175 -21.72081,11.61961 -38.803936,1.73376 C 75.02318,170.35022 74.593045,149.99552 74.593045,149.99552 l 14.703857,-0.11578 c 0,0 0.713537,20.51177 20.770738,20.05971 20.0572,-0.45207 19.91469,-20.20247 19.91469,-20.20247 z"
       id="path25" /></g><text
     xml:space="preserve"
     transform="matrix(0.26458333,0,0,0.26458333,-4.1166696,-44.893689)"
     id="text1"
     style="font-size:32px;line-height:0;font-family:'Red Hat Display';-inkscape-font-specification:'Red Hat Display';text-align:start;letter-spacing:2px;word-spacing:1.73px;writing-mode:lr-tb;direction:ltr;white-space:pre;shape-inside:url(#rect2);fill:#00000d"><tspan
       x="42.3125"
       y="197.70876"
       id="tspan1">obealo</tspan></text></svg>
